<svg width="4" height="11" viewBox="0 0 4 11" fill="none" xmlns="http://www.w3.org/2000/svg">
<path d="M0 1.27962L2.47191 0H2.7191V9.10043C2.7191 9.70448 2.74157 10.0807 2.78652 10.229C2.83645 10.3774 2.93633 10.4913 3.08614 10.5708C3.23596 10.6503 3.54057 10.6953 4 10.7059V11H0.179775V10.7059C0.659176 10.6953 0.968789 10.6529 1.10861 10.5788C1.24844 10.4993 1.34582 10.396 1.40075 10.2688C1.45568 10.1363 1.48315 9.74687 1.48315 9.10043V3.28251C1.48315 2.49831 1.45818 1.99494 1.40824 1.7724C1.37328 1.60284 1.30836 1.47832 1.21348 1.39884C1.1236 1.31936 1.01373 1.27962 0.883895 1.27962C0.699126 1.27962 0.441948 1.36175 0.11236 1.52601L0 1.27962Z" fill="black"/>
</svg>
