<svg width="7" height="11" viewBox="0 0 7 11" fill="none" xmlns="http://www.w3.org/2000/svg">
<path d="M0.221053 11V10.7118C0.930604 10.7014 1.59103 10.5456 2.20234 10.2443C2.81364 9.93791 3.40312 9.40557 3.97076 8.64731C4.54386 7.88905 4.9423 7.05548 5.16608 6.1466C4.30916 6.67115 3.53411 6.93343 2.84093 6.93343C2.06043 6.93343 1.39181 6.64778 0.835087 6.07649C0.278362 5.5 0 4.73654 0 3.78612C0 2.86166 0.278362 2.03848 0.835087 1.31657C1.50643 0.438857 2.38246 0 3.46316 0C4.37466 0 5.15517 0.358357 5.80468 1.07507C6.60156 1.96317 7 3.05902 7 4.36261C7 5.53635 6.69708 6.6322 6.09123 7.65014C5.48538 8.66289 4.64211 9.50425 3.56141 10.1742C2.68265 10.7247 1.72476 11 0.687719 11H0.221053ZM5.29708 5.57011C5.39532 4.89495 5.44445 4.35482 5.44445 3.94972C5.44445 3.44594 5.35439 2.90321 5.17427 2.32153C4.99415 1.73466 4.73762 1.28541 4.40468 0.973796C4.07719 0.662181 3.70332 0.506374 3.28304 0.506374C2.79727 0.506374 2.37154 0.714117 2.00585 1.1296C1.64016 1.54509 1.45731 2.16313 1.45731 2.98371C1.45731 4.07956 1.70019 4.9365 2.18596 5.55453C2.54074 6.00118 2.97739 6.2245 3.49591 6.2245C3.74698 6.2245 4.04445 6.16737 4.38831 6.05312C4.73217 5.93886 5.03509 5.77786 5.29708 5.57011Z" fill="black"/>
</svg>
