<svg width="7" height="11" viewBox="0 0 7 11" fill="none" xmlns="http://www.w3.org/2000/svg">
<path d="M0 5.57812C0 4.36979 0.186241 3.33073 0.558723 2.46094C0.931205 1.58594 1.42607 0.934896 2.04333 0.507812C2.52223 0.169271 3.0171 0 3.52794 0C4.35804 0 5.103 0.414062 5.76283 1.24219C6.58761 2.26823 7 3.65885 7 5.41406C7 6.64323 6.81908 7.6875 6.45724 8.54688C6.0954 9.40625 5.63246 10.0312 5.06841 10.4219C4.50969 10.8073 3.96959 11 3.44812 11C2.41581 11 1.55644 10.4036 0.870011 9.21094C0.290004 8.20573 0 6.99479 0 5.57812ZM1.56442 5.77344C1.56442 7.23177 1.748 8.42188 2.11517 9.34375C2.41847 10.1198 2.87077 10.5078 3.47206 10.5078C3.75941 10.5078 4.05739 10.3828 4.36602 10.1328C4.67465 9.8776 4.90878 9.45312 5.06841 8.85938C5.31319 7.96354 5.43558 6.70052 5.43558 5.07031C5.43558 3.86198 5.30787 2.85417 5.05245 2.04688C4.86089 1.44792 4.61345 1.02344 4.31015 0.773438C4.09198 0.601562 3.82858 0.515625 3.51995 0.515625C3.15811 0.515625 2.83618 0.674479 2.55416 0.992188C2.17104 1.42448 1.9103 2.10417 1.77195 3.03125C1.6336 3.95833 1.56442 4.8724 1.56442 5.77344Z" fill="black"/>
</svg>
