<svg width="7" height="11" viewBox="0 0 7 11" fill="none" xmlns="http://www.w3.org/2000/svg">
<path d="M7 8.92558L6.25698 11H0V10.7059C1.8406 8.99976 3.13631 7.60621 3.88715 6.52529C4.63799 5.44436 5.01341 4.45617 5.01341 3.56069C5.01341 2.87717 4.80745 2.31551 4.39553 1.87572C3.98361 1.43593 3.49088 1.21604 2.91732 1.21604C2.3959 1.21604 1.92663 1.37235 1.5095 1.68497C1.09758 1.99229 0.792551 2.44533 0.594413 3.04408H0.305028C0.435382 2.06382 0.769088 1.31142 1.30615 0.78685C1.84842 0.262283 2.52365 0 3.33184 0C4.19218 0 4.90912 0.280829 5.48268 0.842486C6.06145 1.40414 6.35084 2.06647 6.35084 2.82948C6.35084 3.37524 6.2257 3.921 5.97542 4.46676C5.58957 5.32514 4.96387 6.23386 4.09832 7.19292C2.8 8.63415 1.9892 9.50313 1.66592 9.79986H4.43464C4.99777 9.79986 5.39143 9.77866 5.61564 9.73627C5.84507 9.69388 6.05102 9.6091 6.23352 9.48194C6.41602 9.34947 6.57505 9.16402 6.71061 8.92558H7Z" fill="black"/>
</svg>
