<svg width="32" height="32" viewBox="0 0 32 32" fill="none" xmlns="http://www.w3.org/2000/svg">
<path d="M21.9401 21.1851H21.3326L19.9257 8.23527C19.8618 7.67038 19.8298 7.24938 19.8298 6.97226C19.8298 6.30079 20.0057 5.76254 20.3574 5.35752C20.7198 4.95251 21.1514 4.75 21.6524 4.75C22.1533 4.75 22.5743 4.95251 22.9154 5.35752C23.2671 5.76254 23.443 6.36473 23.443 7.16411C23.443 7.41991 23.4216 7.77696 23.379 8.23527L21.9401 21.1851ZM21.6204 23.839C22.1107 23.839 22.5263 24.0149 22.8674 24.3666C23.2191 24.7077 23.395 25.118 23.395 25.5977C23.395 26.0879 23.2191 26.509 22.8674 26.8607C22.5263 27.2017 22.1107 27.3723 21.6204 27.3723C21.1301 27.3723 20.7091 27.2017 20.3574 26.8607C20.0163 26.509 19.8458 26.0879 19.8458 25.5977C19.8458 25.118 20.0163 24.7077 20.3574 24.3666C20.7091 24.0149 21.1301 23.839 21.6204 23.839Z" fill="black"/>
<path d="M16.2752 21.1851H15.6677L14.2608 8.23527C14.1969 7.67038 14.1649 7.24938 14.1649 6.97226C14.1649 6.30079 14.3408 5.76254 14.6925 5.35752C15.0549 4.95251 15.4865 4.75 15.9875 4.75C16.4884 4.75 16.9094 4.95251 17.2505 5.35752C17.6022 5.76254 17.7781 6.36473 17.7781 7.16411C17.7781 7.41991 17.7567 7.77696 17.7141 8.23527L16.2752 21.1851ZM15.9555 23.839C16.4458 23.839 16.8615 24.0149 17.2025 24.3666C17.5542 24.7077 17.7301 25.118 17.7301 25.5977C17.7301 26.0879 17.5542 26.509 17.2025 26.8607C16.8615 27.2017 16.4458 27.3723 15.9555 27.3723C15.4652 27.3723 15.0442 27.2017 14.6925 26.8607C14.3514 26.509 14.1809 26.0879 14.1809 25.5977C14.1809 25.118 14.3514 24.7077 14.6925 24.3666C15.0442 24.0149 15.4652 23.839 15.9555 23.839Z" fill="black"/>
<path d="M10.6103 21.1851H10.0028L8.59592 8.23527C8.53197 7.67038 8.5 7.24938 8.5 6.97226C8.5 6.30079 8.67586 5.76254 9.02759 5.35752C9.38997 4.95251 9.82163 4.75 10.3226 4.75C10.8235 4.75 11.2445 4.95251 11.5856 5.35752C11.9373 5.76254 12.1132 6.36473 12.1132 7.16411C12.1132 7.41991 12.0919 7.77696 12.0492 8.23527L10.6103 21.1851ZM10.2906 23.839C10.7809 23.839 11.1966 24.0149 11.5376 24.3666C11.8893 24.7077 12.0652 25.118 12.0652 25.5977C12.0652 26.0879 11.8893 26.509 11.5376 26.8607C11.1966 27.2017 10.7809 27.3723 10.2906 27.3723C9.80031 27.3723 9.37931 27.2017 9.02759 26.8607C8.68652 26.509 8.51599 26.0879 8.51599 25.5977C8.51599 25.118 8.68652 24.7077 9.02759 24.3666C9.37931 24.0149 9.80031 23.839 10.2906 23.839Z" fill="black"/>
<path d="M23.7718 4.75H24.5284L24.5512 4.9368H24.5159C24.509 4.89219 24.4906 4.85936 24.4608 4.83829C24.4317 4.8166 24.3829 4.80576 24.3143 4.80576H24.2364V5.34387C24.2364 5.39591 24.2433 5.42906 24.2571 5.44331C24.271 5.45694 24.4258 5.46468 24.4715 5.46654V5.5H23.9578V5.46654C24.0029 5.46283 24.0313 5.45446 24.0431 5.44145C24.0555 5.42782 24.0618 5.3956 24.0618 5.3448V4.80576H23.9828C23.917 4.80576 23.8702 4.81568 23.8425 4.8355C23.8148 4.85471 23.7957 4.88848 23.7853 4.9368H23.75L23.7718 4.75ZM24.6509 4.75L24.9347 5.2816L25.2101 4.75H25.5V4.78439C25.4612 4.78501 25.4352 4.78841 25.4221 4.79461C25.4096 4.80081 25.4002 4.81072 25.394 4.82435C25.3878 4.83798 25.3846 4.86648 25.3846 4.90985V5.3448C25.3846 5.39746 25.3912 5.4303 25.4044 5.44331C25.4176 5.45632 25.4494 5.46406 25.5 5.46654V5.5H25.0864V5.46654C25.1273 5.46592 25.1546 5.46221 25.1685 5.45539C25.183 5.44857 25.1934 5.43866 25.1997 5.42565C25.2066 5.41264 25.2101 5.386 25.2101 5.34572V4.88848L24.891 5.5H24.8578L24.5377 4.89684V5.3448C24.5377 5.38693 24.5404 5.4145 24.546 5.42751C24.5522 5.4399 24.5616 5.4495 24.574 5.45632C24.5872 5.46314 24.6073 5.46654 24.6343 5.46654H24.6717V5.5H24.3537V5.46654C24.3925 5.46654 24.4185 5.46344 24.4317 5.45725C24.4455 5.45105 24.4556 5.44145 24.4618 5.42844C24.468 5.41543 24.4712 5.38755 24.4712 5.3448V4.91171C24.4712 4.86462 24.468 4.83488 24.4618 4.82249C24.4563 4.8101 24.4466 4.80081 24.4327 4.79461C24.4188 4.78779 24.3925 4.78439 24.3537 4.78439V4.75H24.6509Z" fill="black" fill-opacity="0.2"/>
</svg>
