<svg width="6" height="11" viewBox="0 0 6 11" fill="none" xmlns="http://www.w3.org/2000/svg">
<path d="M2.06394 5.47656C1.24041 4.78906 0.70844 4.23698 0.468031 3.82031C0.232737 3.40365 0.11509 2.97135 0.11509 2.52344C0.11509 1.83594 0.375959 1.24479 0.897698 0.75C1.41944 0.25 2.11253 0 2.97698 0C3.81586 0 4.49105 0.231771 5.00256 0.695312C5.51407 1.15885 5.76982 1.6875 5.76982 2.28125C5.76982 2.67708 5.63171 3.08073 5.3555 3.49219C5.07928 3.90365 4.50384 4.38802 3.62916 4.94531C4.52941 5.65365 5.12532 6.21094 5.41688 6.61719C5.80563 7.14844 6 7.70833 6 8.29688C6 9.04167 5.72123 9.67969 5.16368 10.2109C4.60614 10.737 3.87468 11 2.96931 11C1.9821 11 1.21228 10.6849 0.659847 10.0547C0.219949 9.54948 0 8.9974 0 8.39844C0 7.92969 0.153453 7.46615 0.460358 7.00781C0.772379 6.54427 1.30691 6.03385 2.06394 5.47656ZM3.26854 4.64062C3.88235 4.07812 4.2711 3.63542 4.43478 3.3125C4.59847 2.98438 4.68031 2.61458 4.68031 2.20312C4.68031 1.65625 4.52941 1.22917 4.22762 0.921875C3.92583 0.609375 3.51407 0.453125 2.99233 0.453125C2.47059 0.453125 2.04604 0.606771 1.71867 0.914062C1.3913 1.22135 1.22762 1.58073 1.22762 1.99219C1.22762 2.26302 1.29412 2.53385 1.42711 2.80469C1.56522 3.07552 1.75959 3.33333 2.01023 3.57812L3.26854 4.64062ZM2.42455 5.77344C2 6.13802 1.68542 6.53646 1.48082 6.96875C1.27621 7.39583 1.17391 7.85938 1.17391 8.35938C1.17391 9.03125 1.35294 9.57031 1.711 9.97656C2.07417 10.3776 2.53453 10.5781 3.09207 10.5781C3.6445 10.5781 4.08696 10.4193 4.41944 10.1016C4.75192 9.78385 4.91816 9.39844 4.91816 8.94531C4.91816 8.57031 4.82097 8.23438 4.6266 7.9375C4.26343 7.38542 3.52941 6.66406 2.42455 5.77344Z" fill="black"/>
</svg>
