<svg width="6" height="11" viewBox="0 0 6 11" fill="none" xmlns="http://www.w3.org/2000/svg">
<path d="M6 0L5.40834 1.35507H2.31353L1.63843 2.8058C2.97851 3.01304 4.04046 3.53647 4.82427 4.37609C5.49684 5.09879 5.83312 5.94903 5.83312 6.92681C5.83312 7.49541 5.72187 8.0215 5.49937 8.50507C5.28192 8.98865 5.00632 9.40048 4.67257 9.74058C4.33881 10.0807 3.96713 10.3543 3.55752 10.5616C2.97598 10.8539 2.37927 11 1.76738 11C1.15044 11 0.700379 10.8911 0.417193 10.6732C0.139064 10.45 0 10.2056 0 9.93986C0 9.79106 0.0581542 9.66087 0.174463 9.54928C0.290771 9.43237 0.437421 9.37391 0.614412 9.37391C0.745891 9.37391 0.859671 9.39517 0.955752 9.43768C1.05689 9.48019 1.2263 9.58913 1.46397 9.76449C1.84324 10.0408 2.22756 10.179 2.61694 10.179C3.2086 10.179 3.72693 9.94517 4.17193 9.47754C4.622 9.00459 4.84703 8.43068 4.84703 7.7558C4.84703 7.10217 4.64728 6.49372 4.24779 5.93044C3.84829 5.36184 3.29709 4.92343 2.59418 4.61522C2.04298 4.37609 1.29204 4.23792 0.34134 4.20072L2.31353 0H6Z" fill="black"/>
</svg>
