<svg width="7" height="11" viewBox="0 0 7 11" fill="none" xmlns="http://www.w3.org/2000/svg">
<path d="M6.77946 0V0.289062C6.06068 0.356771 5.47258 0.494792 5.01517 0.703125C4.5632 0.90625 4.11396 1.21875 3.66744 1.64062C3.22637 2.0625 2.85881 2.53385 2.56476 3.05469C2.27616 3.57031 2.03384 4.1849 1.83781 4.89844C2.62194 4.38281 3.40879 4.125 4.19837 4.125C4.95527 4.125 5.61144 4.41667 6.16686 5C6.72229 5.58333 7 6.33333 7 7.25C7 8.13542 6.71956 8.94271 6.15869 9.67188C5.48347 10.5573 4.59043 11 3.47958 11C2.72268 11 2.08012 10.7604 1.55193 10.2812C0.517308 9.34896 0 8.14062 0 6.65625C0 5.70833 0.198755 4.80729 0.596266 3.95312C0.993777 3.09896 1.56009 2.34115 2.29522 1.67969C3.03578 1.01823 3.74368 0.572917 4.4189 0.34375C5.09413 0.114583 5.72306 0 6.30572 0H6.77946ZM1.69895 5.46875C1.60093 6.17188 1.55193 6.73958 1.55193 7.17188C1.55193 7.67188 1.64722 8.21615 1.83781 8.80469C2.03384 9.38802 2.32244 9.85156 2.70362 10.1953C2.98133 10.4401 3.31894 10.5625 3.71645 10.5625C4.1902 10.5625 4.61221 10.349 4.9825 9.92188C5.35823 9.49479 5.54609 8.88542 5.54609 8.09375C5.54609 7.20312 5.36095 6.43229 4.99066 5.78125C4.62038 5.13021 4.0949 4.80469 3.41424 4.80469C3.20731 4.80469 2.98405 4.84635 2.74446 4.92969C2.51031 5.01302 2.1618 5.19271 1.69895 5.46875Z" fill="black"/>
</svg>
