<svg width="352" height="189" viewBox="0 0 352 189" fill="none" xmlns="http://www.w3.org/2000/svg">
<path d="M271.565 68.9784C272.749 62.2545 273.448 58.3883 273.661 57.3797C274.194 54.8246 274.768 52.8411 275.384 51.429C276 50.017 276.61 50 277.214 50C278.233 50 279.109 50.992 279.844 54.3539C280.578 57.7159 281.069 62.5907 281.318 68.9784C282.538 60.9097 283.568 55.6315 284.409 53.1436C285.25 50.5885 286.115 50 287.003 50C287.868 50 288.632 50.5885 289.295 53.1436C289.97 55.6315 290.503 59.733 290.894 65.4484C291.154 69.3482 291.285 75.467 291.285 83.8046V125.122C291.285 130.905 291.362 134.872 291.516 137.024C291.634 138.503 291.853 139.78 292.173 140.856C292.493 141.865 293.014 142.369 293.736 142.369V146H285.706V142.369H286.044C286.743 142.369 287.287 141.596 287.678 140.049C287.951 138.974 288.146 137.259 288.265 134.906C288.312 133.763 288.336 130.501 288.336 125.122V83.8046C288.336 76.2738 288.176 70.962 287.856 67.869C287.394 63.5657 286.654 61.414 285.635 61.414C285.007 61.414 284.374 62.3217 283.734 64.1372C283.107 65.8854 282.343 69.1801 281.442 74.0213L281.407 75.1308L281.442 79.4677V125.122C281.442 131.443 281.502 135.376 281.62 136.923C281.75 138.469 281.987 139.78 282.331 140.856C282.674 141.865 283.261 142.369 284.09 142.369V146H275.864V142.369C276.764 142.369 277.38 141.764 277.712 140.554C278.055 139.343 278.292 137.528 278.422 135.107C278.482 133.964 278.511 130.636 278.511 125.122V83.8046C278.511 76.2738 278.316 70.8611 277.925 67.5664C277.404 63.2631 276.675 61.1114 275.74 61.1114C275.1 61.1114 274.466 62.0864 273.839 64.0363C272.856 66.9949 272.098 70.3232 271.565 74.0213V125.122C271.565 131.174 271.636 135.107 271.778 136.923C271.932 138.738 272.151 140.117 272.435 141.058C272.731 141.932 273.324 142.369 274.212 142.369V146H266.164V142.369C266.91 142.369 267.431 141.932 267.727 141.058C268.023 140.117 268.248 138.671 268.402 136.721C268.556 134.704 268.633 130.838 268.633 125.122V88.2424C268.633 78.0893 268.58 71.5335 268.473 68.575C268.391 66.3561 268.26 64.8432 268.083 64.0363C267.905 63.1622 267.662 62.7252 267.354 62.7252C267.023 62.7252 266.626 63.2295 266.164 64.2381L265.897 60.6072L270.801 50H271.565V68.9784Z" fill="black"/>
<path d="M262.697 131.107C261.027 138.436 259.978 142.672 259.552 143.815C258.912 145.496 258.222 146 257.5 146C256.375 146 255.454 144.152 254.72 139.781C253.997 135.411 253.636 129.662 253.636 122.534C253.636 118.029 253.814 114.129 254.169 110.835C254.655 106.262 255.495 101.959 256.692 97.9248C257.9 93.8905 259.901 88.982 262.697 83.1995V79.5685C262.697 70.3568 262.436 64.0363 261.915 60.6072C261.406 57.178 260.659 55.4634 259.676 55.4634C258.93 55.4634 258.338 56.6064 257.9 58.8926C257.45 61.1787 257.225 63.801 257.225 66.7595L257.26 72.6093C257.26 75.7023 257.118 78.0893 256.834 79.7703C256.561 81.4512 256.2 82.2917 255.75 82.2917C255.312 82.2917 254.951 81.4176 254.666 79.6694C254.394 77.9212 254.258 75.5342 254.258 72.5085C254.258 66.7259 254.779 61.414 255.821 56.5728C256.863 51.7316 258.117 50 260 50C261.445 50 262.839 50.6894 263.762 53.4462C264.461 55.5306 264.976 58.7917 265.308 63.2295C265.521 66.1208 265.628 72.0378 265.628 80.9806V112.348C265.628 121.156 265.657 126.569 265.717 128.586C265.776 130.536 265.871 131.847 266.001 132.519C266.143 133.192 266.303 133.528 266.481 133.528C266.67 133.528 266.836 133.292 266.978 132.822C267.227 131.948 267.706 129.493 268.417 125.459V131.107C267.091 141.193 265.708 146 264.5 146C263.92 146 263.573 145.093 263.229 142.807C262.886 140.521 262.708 136.621 262.697 131.107ZM262.697 124.551V89.3518C260.908 93.3862 259.753 96.2438 259.232 97.9248C258.297 100.883 257.627 103.976 257.225 107.204C256.822 110.431 256.621 113.961 256.621 117.794C256.621 122.635 256.875 126.669 257.385 129.897C257.894 133.057 258.48 134.637 259.143 134.637C260.044 134.637 261.228 131.275 262.697 124.551Z" fill="black"/>
<path d="M301.061 131.107C299.391 138.436 298.342 142.672 297.916 143.815C297.276 145.496 296.586 146 295.864 146C294.739 146 293.818 144.152 293.084 139.781C292.361 135.411 292 129.662 292 122.534C292 118.029 292.178 114.129 292.533 110.835C293.019 106.262 293.859 101.959 295.056 97.9248C296.264 93.8905 298.265 88.982 301.061 83.1995V79.5685C301.061 70.3568 300.8 64.0363 300.279 60.6072C299.77 57.178 299.023 55.4634 298.04 55.4634C297.294 55.4634 296.702 56.6064 296.264 58.8926C295.814 61.1787 295.589 63.801 295.589 66.7595L295.624 72.6093C295.624 75.7023 295.482 78.0893 295.198 79.7703C294.925 81.4512 294.564 82.2917 294.114 82.2917C293.676 82.2917 293.315 81.4176 293.03 79.6694C292.758 77.9212 292.622 75.5342 292.622 72.5085C292.622 66.7259 293.143 61.414 294.185 56.5728C295.227 51.7316 296.481 50 298.364 50C299.809 50 301.203 50.6894 302.126 53.4462C302.825 55.5306 303.34 58.7917 303.672 63.2295C303.885 66.1208 303.992 72.0378 303.992 80.9806V112.348C303.992 121.156 304.021 126.569 304.081 128.586C304.14 130.536 304.235 131.847 304.365 132.519C304.507 133.192 304.667 133.528 304.845 133.528C305.034 133.528 305.2 133.292 305.342 132.822C305.591 131.948 306.07 129.493 306.781 125.459V131.107C305.455 141.193 304.072 146 302.864 146C302.284 146 301.937 145.093 301.594 142.807C301.25 140.521 301.072 136.621 301.061 131.107ZM301.061 124.551V89.3518C299.272 93.3862 298.117 96.2438 297.596 97.9248C296.661 100.883 295.991 103.976 295.589 107.204C295.186 110.431 294.985 113.961 294.985 117.794C294.985 122.635 295.239 126.669 295.749 129.897C296.258 133.057 296.844 134.637 297.507 134.637C298.408 134.637 299.592 131.275 301.061 124.551Z" fill="black"/>
<path d="M251.857 1V125.122C251.857 130.905 251.928 134.737 252.07 136.62C252.224 138.503 252.455 139.948 252.763 140.957C253.071 141.898 253.645 142.369 254.486 142.369V146H246.509V142.369C247.255 142.369 247.765 141.932 248.037 141.058C248.309 140.184 248.523 138.738 248.677 136.721C248.831 134.704 248.908 130.838 248.908 125.122V39.6288C248.908 29.2068 248.866 22.819 248.783 20.4657C248.7 18.0451 248.564 16.3977 248.375 15.5236C248.197 14.6495 247.966 14.2125 247.682 14.2125C247.374 14.2125 246.983 14.7504 246.509 15.8262L246.207 12.2961L251.057 1H251.857Z" fill="black"/>
<path d="M246.826 109.322C246.388 121.492 245.529 130.872 244.25 137.461C242.971 143.983 241.552 146 240 146C238.152 146 236.546 142.84 235.172 134.032C233.798 125.224 233.111 113.323 233.111 98.3282C233.111 83.8046 233.869 72.0042 235.385 62.9269C236.913 53.8496 238.743 50 240.875 50C242.474 50 243.788 51.7316 244.819 56.5728C245.849 61.3468 246.364 66.3225 246.364 71.4999C246.364 74.0549 246.216 76.1394 245.92 77.7531C245.636 79.2996 245.233 80.0728 244.712 80.0728C244.013 80.0728 243.486 78.7953 243.131 76.2402C242.93 74.8282 242.794 72.1386 242.722 68.1715C242.663 64.2044 242.426 61.1787 242.012 59.0943C241.597 57.0771 241.023 56.0685 240.289 56.0685C239.104 56.0685 238.151 58.5564 237.428 63.532C236.469 70.1215 235.989 78.8289 235.989 89.6544C235.989 100.682 236.463 110.431 237.411 118.903C238.37 127.308 239.661 131.511 241.283 131.511C242.444 131.511 243.486 129.258 244.41 124.753C245.062 121.66 245.695 116.046 246.311 107.91L246.826 109.322Z" fill="black"/>
<path d="M217.066 50.0344H224.723V53.7662C224.237 53.7662 223.894 54.2369 223.693 55.1782C223.503 56.1196 223.408 57.3635 223.408 58.91C223.408 60.5237 223.616 65.0115 224.03 68.3735C224.16 69.4493 224.356 71.1303 224.616 73.4164L225.771 83.9057L227.104 73.4164C227.956 66.7598 228.383 60.5573 228.383 58.8091C228.383 57.3971 228.282 56.2204 228.081 55.2791C227.879 54.2705 227.554 53.7662 227.104 53.7662V50.0344H232.611V53.7662C232.031 53.9679 231.527 54.8756 231.101 56.4894C230.521 58.7755 229.727 65.7512 228.72 73.4164L226.5 90.2598L230.55 124.921C231.545 133.057 232.256 137.965 232.682 139.646C233.108 141.26 233.659 142.167 234.334 142.369V146H226.659V142.369C227.192 142.369 227.607 141.697 227.903 140.352C228.128 139.411 228.241 138.167 228.241 136.62C228.241 135.074 227.862 131.174 227.104 124.921L224.723 103.573L222.111 124.921C221.306 131.039 220.903 134.67 220.903 135.813C220.903 137.427 221.034 138.906 221.294 140.251C221.567 141.529 221.969 142.235 222.502 142.369V146H217.19V142.369C217.617 142.033 217.99 141.192 218.31 139.848C218.76 137.898 219.518 132.922 220.584 124.921L223.995 97.6224L220.903 72.2061C220.027 64.9443 219.346 58.4057 218.86 56.5902C218.387 54.7075 217.788 53.7662 217.066 53.7662V50.0344Z" fill="black"/>
<path d="M195.436 57.2959V121.592C195.436 130.199 195.602 135.645 195.933 137.931C196.371 140.89 196.958 142.369 197.692 142.369H199.167V146H189.449V142.369H190.177C190.651 142.369 191.083 141.697 191.474 140.352C191.865 139.007 192.131 137.192 192.274 134.906C192.427 132.619 192.504 128.182 192.504 121.592V57.2959H189.342V50.0341H192.504V45.9826C192.504 36.7709 192.765 28.9712 193.286 22.5835C193.807 16.1958 194.601 11.052 195.667 7.15213C196.745 3.18503 197.953 1.20148 199.291 1.20148C200.535 1.20148 201.678 3.4876 202.72 8.05985C203.407 11.0856 203.75 14.4812 203.75 18.2466C203.75 20.2637 203.596 22.18 203.288 23.9955C202.98 25.7437 202.649 26.6178 202.293 26.6178C202.021 26.6178 201.731 26.0799 201.423 25.0041C201.127 23.861 200.76 21.474 200.321 17.8431C199.883 14.145 199.48 11.6571 199.113 10.3796C198.746 9.10206 198.338 8.46329 197.887 8.46329C197.343 8.46329 196.881 9.30377 196.502 10.9847C196.123 12.5985 195.85 15.1536 195.685 18.65C195.519 22.0792 195.436 30.9883 195.436 45.3775V50.0341H199.629V57.2959H195.436Z" fill="black"/>
<path d="M181.754 50C184.217 50 186.195 54.6229 187.687 65.2466C188.955 74.3239 189.588 84.7459 189.588 96.5128C189.588 104.783 189.239 113.154 188.54 121.627C187.841 130.099 186.876 136.486 185.644 140.79C184.424 145.093 183.004 146 181.5 146C179.048 146 177.158 141.697 175.713 130.603C174.493 121.257 173.883 110.767 173.883 99.1351C173.883 90.663 174.251 82.2581 174.985 73.9205C175.731 65.5156 176.708 59.3296 177.916 55.3625C179.124 51.3282 180.403 50 181.754 50ZM181.203 55.8668C180.575 55.8668 179.942 56.9426 179.302 59.0943C178.674 61.1787 178.165 64.8768 177.774 70.1887C177.383 75.5006 177.188 82.3253 177.188 90.663C177.188 104.111 177.656 115.709 178.591 125.459C179.539 135.209 180.782 140.084 182.322 140.084C183.471 140.084 184.419 137.394 185.165 132.015C185.911 126.636 186.284 117.39 186.284 104.279C186.284 87.8725 185.662 74.9627 184.419 65.5492C183.578 59.0943 182.506 55.8668 181.203 55.8668Z" fill="black"/>
<path d="M327.87 50C330.334 50 332.312 54.6229 333.804 65.2466C335.071 74.3239 335.705 84.7459 335.705 96.5128C335.705 104.783 335.356 113.154 334.657 121.627C333.958 130.099 332.993 136.486 331.761 140.79C330.541 145.093 329.121 146 327.617 146C325.165 146 323.275 141.697 321.83 130.603C320.61 121.257 320 110.767 320 99.1351C320 90.663 320.367 82.2581 321.101 73.9205C321.848 65.5156 322.825 59.3296 324.033 55.3625C325.241 51.3282 326.52 50 327.87 50ZM327.319 55.8668C326.692 55.8668 326.058 56.9426 325.419 59.0943C324.791 61.1787 324.282 64.8768 323.891 70.1887C323.5 75.5006 323.304 82.3253 323.304 90.663C323.304 104.111 323.772 115.709 324.708 125.459C325.655 135.209 326.899 140.084 328.439 140.084C329.588 140.084 330.535 137.394 331.281 132.015C332.027 126.636 332.4 117.39 332.4 104.279C332.4 87.8725 331.779 74.9627 330.535 65.5492C329.694 59.0943 328.622 55.8668 327.319 55.8668Z" fill="black"/>
<path d="M145.805 68.8775C147.712 55.8332 149.53 50 151.259 50C152.148 50 152.912 50.5885 153.551 53.1436C154.191 55.6315 154.7 59.7667 155.079 65.5492C155.34 69.5836 155.47 75.7695 155.47 84.1072V123.543C155.47 129.393 155.553 134.939 155.719 137.024C155.849 138.705 156.056 140.016 156.34 140.957C156.637 141.898 157.175 142.369 157.957 142.369V146H149.909V142.369H150.247C151.005 142.369 151.532 141.73 151.828 140.453C152.136 139.108 152.349 137.158 152.467 134.603C152.515 133.594 152.539 128.855 152.539 123.543V85.7209C152.539 77.316 152.343 71.2309 151.952 67.4655C151.573 63.6329 150.928 61.7166 150.016 61.7166C148.606 61.7166 147.203 66.0871 145.805 74.8282V123.543C145.805 129.796 145.87 135.242 146.001 136.721C146.167 138.671 146.392 140.117 146.676 141.058C146.972 141.932 147.564 142.369 148.452 142.369V146H140.405V142.369H140.76C141.589 142.369 142.146 141.192 142.43 138.839C142.726 136.418 142.874 130.267 142.874 123.543V89.251C142.874 78.1565 142.827 71.399 142.732 68.9784C142.649 66.5578 142.513 64.9104 142.323 64.0363C142.146 63.1622 141.903 62.7252 141.595 62.7252C141.263 62.7252 140.866 63.2295 140.405 64.2381L140.138 60.6072L145.041 50H145.805V68.8775Z" fill="black"/>
<path d="M339.667 68.8775C341.574 55.8332 343.392 50 345.121 50C346.01 50 346.774 50.5885 347.413 53.1436C348.053 55.6315 348.562 59.7667 348.941 65.5492C349.202 69.5836 349.332 75.7695 349.332 84.1072V123.543C349.332 129.393 349.415 134.939 349.581 137.024C349.711 138.705 349.918 140.016 350.202 140.957C350.498 141.898 351.037 142.369 351.819 142.369V146H343.771V142.369H344.109C344.867 142.369 345.394 141.73 345.69 140.453C345.998 139.108 346.211 137.158 346.329 134.603C346.377 133.594 346.4 128.855 346.4 123.543V85.7209C346.4 77.316 346.205 71.2309 345.814 67.4655C345.435 63.6329 344.79 61.7166 343.878 61.7166C342.468 61.7166 341.065 66.0871 339.667 74.8282V123.543C339.667 129.796 339.732 135.242 339.863 136.721C340.029 138.671 340.254 140.117 340.538 141.058C340.834 141.932 341.426 142.369 342.314 142.369V146H334.266V142.369H334.622C335.451 142.369 336.008 141.192 336.292 138.839C336.588 136.418 336.736 130.267 336.736 123.543V89.251C336.736 78.1565 336.689 71.399 336.594 68.9784C336.511 66.5578 336.375 64.9104 336.185 64.0363C336.008 63.1622 335.765 62.7252 335.457 62.7252C335.125 62.7252 334.728 63.2295 334.266 64.2381L334 60.6072L338.903 50H339.667V68.8775Z" fill="black"/>
<path d="M130.133 110.734C129.138 107.977 128.374 104.144 127.841 99.236C127.308 94.2603 127.042 88.7803 127.042 82.796C127.042 73.6515 127.646 65.7846 128.854 59.1951C130.074 52.6057 131.605 50 133.5 50C135.052 50 136.422 51.4627 137.559 55.7659H143.005C143.515 55.7659 143.811 55.8668 143.894 56.0685C143.977 56.203 144.036 56.472 144.071 56.8754C144.142 57.4805 144.178 58.5564 144.178 60.1029C144.178 61.8511 144.148 63.0614 144.089 63.7338C144.054 64.07 143.989 64.3389 143.894 64.5406C143.811 64.7424 143.515 64.8432 143.005 64.8432H138.891C139.555 69.6844 139.886 75.8704 139.886 83.4012C139.886 92.0078 139.306 99.3704 138.145 105.489C136.984 111.608 135.427 114.667 133.473 114.667C132.667 114.667 131.844 113.995 131.003 112.65C130.482 115.205 130.127 117.458 129.937 119.408C129.76 121.29 129.671 122.904 129.671 124.249C129.671 125.392 129.766 126.501 129.955 127.577C130.157 128.653 130.541 129.426 131.11 129.897C131.442 130.166 132.271 130.401 133.597 130.603C136.037 130.939 137.618 131.41 138.341 132.015C139.442 132.889 140.319 135.209 140.97 138.974C141.633 142.74 141.965 147.379 141.965 152.893C141.965 160.491 141.337 167.618 140.082 174.275C138.234 184.092 135.824 189 132.851 189C130.565 189 128.635 186.075 127.059 180.225C126.171 176.863 125.727 173.367 125.727 169.736C125.727 168.122 125.792 166.509 125.922 164.895C126.124 162.407 126.538 158.944 127.166 154.506C127.249 153.901 127.853 150.27 128.978 143.614C128.362 141.529 127.924 139.68 127.663 138.066C127.415 136.385 127.29 134.503 127.29 132.418C127.29 130.065 127.456 127.308 127.788 124.148C128.131 120.988 128.913 116.516 130.133 110.734ZM133.224 54.1522C132.348 54.1522 131.613 56.1358 131.021 60.1029C130.429 64.07 130.133 70.1551 130.133 78.3582C130.133 88.982 130.536 97.2188 131.341 103.069C131.957 107.506 132.738 109.725 133.686 109.725C134.586 109.725 135.326 107.809 135.907 103.976C136.487 100.144 136.777 94.1258 136.777 85.9226C136.777 75.2316 136.369 66.8604 135.551 60.8089C134.947 56.3711 134.172 54.1522 133.224 54.1522ZM129.955 144.421C129.399 147.85 128.978 151.044 128.694 154.002C128.41 156.961 128.267 159.684 128.267 162.172C128.267 165.399 128.611 168.223 129.298 170.644C130.482 174.813 132.194 176.897 134.432 176.897C136.564 176.897 138.133 174.745 139.14 170.442C140.159 166.206 140.668 161.667 140.668 156.826C140.668 153.33 140.366 150.842 139.762 149.363C139.146 147.883 137.926 147.009 136.102 146.74C133.437 146.337 131.388 145.564 129.955 144.421Z" fill="black"/>
<path d="M122.704 0.579254C123.201 0.579254 123.622 1.58784 123.965 3.60501C124.32 5.55494 124.498 7.94192 124.498 10.766C124.498 13.59 124.32 16.0106 123.965 18.0278C123.622 20.0449 123.201 21.0535 122.704 21.0535C122.206 21.0535 121.78 20.0449 121.425 18.0278C121.069 16.0106 120.892 13.59 120.892 10.766C120.892 7.94192 121.063 5.55494 121.407 3.60501C121.762 1.58784 122.194 0.579254 122.704 0.579254ZM124.178 50V123.122C124.178 128.905 124.249 134.771 124.391 136.721C124.545 138.604 124.764 140.016 125.049 140.957C125.345 141.898 125.878 142.369 126.648 142.369V146H118.742V142.369C119.535 142.369 120.068 141.932 120.341 141.058C120.613 140.184 120.826 138.738 120.98 136.721C121.146 134.704 121.229 128.838 121.229 123.122V87.5193C121.229 77.5006 121.176 71.0121 121.069 68.0536C120.986 65.9019 120.856 64.4227 120.678 63.6158C120.501 62.7417 120.258 62.3046 119.95 62.3046C119.618 62.3046 119.216 62.8089 118.742 63.8175L118.493 60.1866L123.397 50H124.178Z" fill="black"/>
<path d="M317.21 0.579254C317.708 0.579254 318.128 1.58784 318.472 3.60501C318.827 5.55494 319.005 7.94192 319.005 10.766C319.005 13.59 318.827 16.0106 318.472 18.0278C318.128 20.0449 317.708 21.0535 317.21 21.0535C316.713 21.0535 316.287 20.0449 315.931 18.0278C315.576 16.0106 315.398 13.59 315.398 10.766C315.398 7.94192 315.57 5.55494 315.914 3.60501C316.269 1.58784 316.701 0.579254 317.21 0.579254ZM318.685 50V123.122C318.685 128.905 318.756 134.771 318.898 136.721C319.052 138.604 319.271 140.016 319.556 140.957C319.852 141.898 320.385 142.369 321.154 142.369V146H313.249V142.369C314.042 142.369 314.575 141.932 314.848 141.058C315.12 140.184 315.333 138.738 315.487 136.721C315.653 134.704 315.736 128.838 315.736 123.122V87.5193C315.736 77.5006 315.683 71.0121 315.576 68.0536C315.493 65.9019 315.363 64.4227 315.185 63.6158C315.008 62.7417 314.765 62.3046 314.457 62.3046C314.125 62.3046 313.722 62.8089 313.249 63.8175L313 60.1866L317.903 50H318.685Z" fill="black"/>
<path d="M117.816 50V80.7788H117.229C116.779 70.8947 116.199 64.1708 115.488 60.6072C114.79 57.0435 113.895 55.2617 112.806 55.2617C111.977 55.2617 111.307 56.5056 110.798 58.9934C110.289 61.4813 110.034 64.2381 110.034 67.2638C110.034 71.0292 110.224 74.2567 110.603 76.9462C110.97 79.703 111.716 82.6279 112.841 85.7209L115.435 92.8819C117.839 99.5385 119.041 108.313 119.041 119.206C119.041 127.611 118.479 134.402 117.354 139.579C116.24 144.689 115.026 146 113.641 146C112.646 146 111.473 146.236 110.194 144.219C109.803 143.546 109.483 143.21 109.235 143.21C108.962 143.21 108.749 144.252 108.595 146H108.009L108.009 112.852H108.595C108.927 122.265 109.56 129.359 110.496 134.133C111.432 138.907 112.48 141.294 113.641 141.294C114.458 141.294 115.121 139.949 115.63 137.26C116.152 134.503 116.412 131.208 116.412 127.375C116.412 122.736 116.122 118.836 115.542 115.676C114.973 112.516 113.83 108.515 112.113 103.674C110.395 98.8325 109.27 94.462 108.737 90.5621C108.204 86.7295 107.938 81.8883 107.938 76.0385C107.938 68.4405 108.394 62.0864 109.306 56.9762C110.23 51.8661 111.42 50 112.877 50C113.516 50 114.292 50.7732 115.204 52.3197C115.808 53.3283 116.211 53.8326 116.412 53.8326C116.602 53.8326 116.75 53.5973 116.856 53.1266C116.963 52.6559 117.087 51.6137 117.229 50H117.816Z" fill="black"/>
<path d="M167.878 50V80.7788H167.292C166.841 70.8947 166.261 64.1708 165.55 60.6072C164.852 57.0435 163.957 55.2617 162.868 55.2617C162.039 55.2617 161.37 56.5056 160.86 58.9934C160.351 61.4813 160.096 64.2381 160.096 67.2638C160.096 71.0292 160.286 74.2567 160.665 76.9462C161.032 79.703 161.778 82.6279 162.903 85.7209L165.497 92.8819C167.901 99.5385 169.104 108.313 169.104 119.206C169.104 127.611 168.541 134.402 167.416 139.579C166.303 144.689 165.089 146 163.703 146C162.708 146 161.535 146.236 160.256 144.219C159.865 143.546 159.546 143.21 159.297 143.21C159.025 143.21 158.811 144.252 158.657 146H157.931L157.931 112.852H158.657C158.989 122.265 159.623 129.359 160.558 134.133C161.494 138.907 162.542 141.294 163.703 141.294C164.52 141.294 165.183 139.949 165.693 137.26C166.214 134.503 166.474 131.208 166.474 127.375C166.474 122.736 166.184 118.836 165.604 115.676C165.035 112.516 163.892 108.515 162.175 103.674C160.458 98.8325 159.332 94.462 158.799 90.5621C158.267 86.7295 158 81.8883 158 76.0385C158 68.4405 158.456 62.0864 159.368 56.9762C160.292 51.8661 161.482 50 162.939 50C163.578 50 164.354 50.7732 165.266 52.3197C165.87 53.3283 166.273 53.8326 166.474 53.8326C166.664 53.8326 166.812 53.5973 166.918 53.1266C167.025 52.6559 167.149 51.6137 167.292 50H167.878Z" fill="black"/>
<path d="M77.3369 87.7888C77.3251 101.506 77.9114 112.264 79.0958 120.064C80.2801 127.863 81.6718 131.763 83.2707 131.763C84.3367 131.763 85.2605 130.116 86.0422 126.821C86.8357 123.459 87.499 117.744 88.0319 109.675L88.5827 111.692C88.3339 120.904 87.6115 129.309 86.4152 136.907C85.219 144.438 83.8003 146 82 146C80.0458 146 78.2904 143.9 76.8928 135.293C75.5071 126.619 74.8142 114.987 74.8142 100.396C74.8142 84.595 75.5248 72.2903 76.9461 63.482C78.3792 54.6064 80.1735 50 82.3291 50C84.1531 50 85.6513 53.5978 86.8239 60.4562C87.9964 67.2473 88.5827 76.3582 88.5827 87.7888H77.3369ZM77.3369 81.9391H84.8696C84.8104 76.022 84.686 71.8532 84.4965 69.4326C84.2004 65.6672 83.7563 62.7087 83.1641 60.5571C82.5838 58.4054 81.9738 57.3296 81.3342 57.3296C80.3512 57.3296 79.4688 59.5149 78.6871 63.8854C77.9173 68.1887 77.4672 74.2066 77.3369 81.9391Z" fill="black"/>
<path d="M90.5227 87.7888C90.5109 101.506 91.0972 112.264 92.2815 120.064C93.4659 127.863 94.8576 131.763 96.4565 131.763C97.5224 131.763 98.4463 130.116 99.228 126.821C100.021 123.459 100.685 117.744 101.218 109.675L101.768 111.692C101.52 120.904 100.797 129.309 99.601 136.907C98.4048 144.438 96.9861 146 95.1858 146C93.2316 146 91.4762 143.9 90.0786 135.293C88.6929 126.619 88 114.987 88 100.396C88 84.595 88.7106 72.2903 90.1319 63.482C91.565 54.6064 93.3593 50 95.5149 50C97.3389 50 98.8371 53.5978 100.01 60.4562C101.182 67.2473 101.768 76.3582 101.768 87.7888H90.5227ZM90.5227 81.9391H98.0554C97.9962 76.022 97.8718 71.8532 97.6823 69.4326C97.3862 65.6672 96.9421 62.7087 96.3499 60.5571C95.7696 58.4054 95.1596 57.3296 94.52 57.3296C93.537 57.3296 92.6546 59.5149 91.8729 63.8854C91.1031 68.1887 90.653 74.2066 90.5227 81.9391Z" fill="black"/>
<path d="M207.523 87.7888C207.511 101.506 208.097 112.264 209.282 120.064C210.466 127.863 211.858 131.763 213.456 131.763C214.522 131.763 215.446 130.116 216.228 126.821C217.021 123.459 217.685 117.744 218.218 109.675L218.768 111.692C218.52 120.904 217.797 129.309 216.601 136.907C215.405 144.438 213.986 146 212.186 146C210.232 146 208.476 143.9 207.079 135.293C205.693 126.619 205 114.987 205 100.396C205 84.595 205.711 72.2903 207.132 63.482C208.565 54.6064 210.359 50 212.515 50C214.339 50 215.837 53.5978 217.01 60.4562C218.182 67.2473 218.768 76.3582 218.768 87.7888H207.523ZM207.523 81.9391H215.055C214.996 76.022 214.872 71.8532 214.682 69.4326C214.386 65.6672 213.942 62.7087 213.35 60.5571C212.77 58.4054 212.16 57.3296 211.52 57.3296C210.537 57.3296 209.655 59.5149 208.873 63.8854C208.103 68.1887 207.653 74.2066 207.523 81.9391Z" fill="black"/>
<path d="M70.1563 50V71.0462C71.5183 57.195 72.9159 50 74.349 50C75.0004 50 75.5393 51.4124 75.9657 53.6986C76.3921 55.9174 76.6053 58.5061 76.6053 61.4647C76.6053 64.087 76.4513 66.3059 76.1433 68.1213C75.8354 69.9368 75.4682 70.8445 75.0419 70.8445C74.6273 70.8445 74.1595 69.7014 73.6384 67.4153C73.1291 65.0619 72.7501 63.8853 72.5014 63.8853C72.2882 63.8853 72.0572 64.5577 71.8085 65.9024C71.2755 68.6592 70.7248 73.1979 70.1563 79.5183V123.795C70.1563 128.905 70.2688 132.772 70.4938 135.394C70.6478 137.209 70.9202 138.722 71.3111 139.933C71.7019 141.143 72.2645 141.748 72.9988 141.748V146H64.6667V141.748C65.4957 141.748 66.1116 141.008 66.5143 139.529C66.8104 138.453 67.0177 136.739 67.1361 134.385C67.1953 133.242 67.2249 129.981 67.2249 124.602V88.7973C67.2249 78.0391 67.1835 71.6514 67.1006 69.6342C67.0295 67.5498 66.8874 66.0369 66.6742 65.0956C66.4729 64.1542 66.2182 63.6835 65.9103 63.6835C65.5431 63.6835 65.1286 64.1878 64.6667 65.1964L64.489 61.5655L69.4101 50H70.1563Z" fill="black"/>
<path d="M54.8928 1.95837V69.5336C56.2075 61.3304 57.2497 56.0858 58.0196 53.7996C58.7894 51.4463 59.5593 50 60.3291 50C61.2529 50 62.0465 51.7152 62.7097 54.6065C63.373 57.4978 63.8645 62.0364 64.1843 68.2224C64.4093 72.5257 64.5218 80.3926 64.5218 91.8233V124.501C64.5218 130.351 64.6047 134.352 64.7706 136.504C64.889 138.117 65.0903 139.395 65.3746 140.336C65.6588 141.278 66.18 141.748 66.938 141.748V146H58.9434V141.748H59.3165C60.0745 141.748 60.6015 141.109 60.8976 139.832C61.1937 138.487 61.401 136.537 61.5194 133.982C61.555 132.906 61.5727 129.746 61.5727 124.501V91.8233C61.5727 81.7374 61.478 75.1144 61.2885 71.9542C61.1108 68.7939 60.8206 66.4406 60.418 64.8941C60.0153 63.2803 59.5297 62.4735 58.9612 62.4735C58.3808 62.4735 57.7768 63.3476 57.1491 65.0958C56.5213 66.844 55.7692 70.374 54.8928 75.6859V124.501C54.8928 130.822 54.952 134.755 55.0705 136.302C55.2007 137.848 55.4317 139.16 55.7633 140.235C56.1068 141.244 56.6931 141.748 57.5221 141.748V146H49.4565V141.748C50.179 141.748 50.7475 141.109 51.162 139.832C51.3989 139.16 51.5884 137.882 51.7305 135.999C51.8726 134.117 51.9437 130.284 51.9437 124.501V40.8897C51.9437 30.3332 51.8963 23.8447 51.8016 21.4241C51.7187 19.0035 51.5825 17.3561 51.393 16.482C51.2153 15.6079 50.9725 15.1708 50.6646 15.1708C50.4158 15.1708 50.0131 15.7087 49.4565 16.7846L49.2078 13.2545L54.0756 1.95837H54.8928Z" fill="black"/>
<path d="M48.5074 21.6759V50.0343H52.3093V57.0943H48.5074V119.004C48.5074 124.989 48.6554 129.023 48.9515 131.107C49.2595 133.192 49.6503 134.234 50.1241 134.234C50.5149 134.234 50.8939 133.561 51.2611 132.217C51.6282 130.805 51.9125 128.754 52.1138 126.064H52.8067C52.3922 132.654 51.8059 137.629 51.0479 140.991C50.2899 144.286 50.3054 146 49.5 146C48.9552 146 47.5211 145.681 47 144C46.4789 142.252 46.1978 139.21 45.9491 136.049C45.7004 132.822 45.576 127.88 45.576 121.223V57.0943H43V53.766C43.6514 52.2868 44.3147 51.7989 44.9898 48.3025C45.6767 44.7388 46.2867 40.5364 46.8196 35.6952C47.092 33.1401 47.471 28.467 47.9566 21.6759H48.5074Z" fill="black"/>
<path d="M310.507 21.6759V50H318.666V57.0943H310.507V119.004C310.507 124.989 310.655 129.023 310.952 131.107C311.259 133.192 311.65 134.234 312.124 134.234C312.515 134.234 312.894 133.561 313.261 132.217C313.628 130.805 313.912 128.754 314.114 126.064H314.807C314.392 132.654 313.806 137.629 313.048 140.991C312.29 144.286 312.305 146 311.5 146C310.955 146 309.521 145.681 309 144C308.479 142.252 308.198 139.21 307.949 136.049C307.7 132.822 307.576 127.88 307.576 121.223V57.0943H305V53.766C305.651 52.2868 306.315 51.7989 306.99 48.3025C307.677 44.7388 308.287 40.5364 308.82 35.6952C309.092 33.1401 309.471 28.467 309.957 21.6759H310.507Z" fill="black"/>
<path d="M14.2307 106.616H13.5875L12.0978 24.1852C12.0301 20.5894 11.9963 17.9095 11.9963 16.1456C11.9963 11.8714 12.1825 8.44523 12.5549 5.86714C12.9386 3.28905 13.3956 2 13.926 2C14.4564 2 14.9022 3.28905 15.2633 5.86714C15.6358 8.44523 15.822 12.2784 15.822 17.3668C15.822 18.9951 15.7994 21.2678 15.7542 24.1852L14.2307 106.616ZM13.8922 123.51C14.4113 123.51 14.8514 124.629 15.2126 126.868C15.585 129.039 15.7712 131.651 15.7712 134.704C15.7712 137.825 15.585 140.505 15.2126 142.743C14.8514 144.914 14.4113 146 13.8922 146C13.3731 146 12.9273 144.914 12.5549 142.743C12.1937 140.505 12.0132 137.825 12.0132 134.704C12.0132 131.651 12.1937 129.039 12.5549 126.868C12.9273 124.629 13.3731 123.51 13.8922 123.51Z" fill="black"/>
<path d="M8.23261 106.616H7.58935L6.09969 24.1852C6.03198 20.5894 5.99813 17.9095 5.99813 16.1456C5.99813 11.8714 6.18433 8.44523 6.55675 5.86714C6.94045 3.28905 7.3975 2 7.92791 2C8.45832 2 8.90408 3.28905 9.26521 5.86714C9.63763 8.44523 9.82383 12.2784 9.82383 17.3668C9.82383 18.9951 9.80126 21.2678 9.75612 24.1852L8.23261 106.616ZM7.89405 123.51C8.41318 123.51 8.8533 124.629 9.21443 126.868C9.58684 129.039 9.77305 131.651 9.77305 134.704C9.77305 137.825 9.58684 140.505 9.21443 142.743C8.8533 144.914 8.41318 146 7.89405 146C7.37493 146 6.92916 144.914 6.55675 142.743C6.19562 140.505 6.01505 137.825 6.01505 134.704C6.01505 131.651 6.19562 129.039 6.55675 126.868C6.92916 124.629 7.37493 123.51 7.89405 123.51Z" fill="black"/>
<path d="M2.23448 106.616H1.59122L0.101567 24.1852C0.0338558 20.5894 0 17.9095 0 16.1456C0 11.8714 0.186207 8.44523 0.558621 5.86714C0.942321 3.28905 1.39937 2 1.92978 2C2.46019 2 2.90596 3.28905 3.26709 5.86714C3.6395 8.44523 3.82571 12.2784 3.82571 17.3668C3.82571 18.9951 3.80314 21.2678 3.758 24.1852L2.23448 106.616ZM1.89593 123.51C2.41505 123.51 2.85518 124.629 3.2163 126.868C3.58872 129.039 3.77493 131.651 3.77493 134.704C3.77493 137.825 3.58872 140.505 3.2163 142.743C2.85518 144.914 2.41505 146 1.89593 146C1.3768 146 0.931035 144.914 0.558621 142.743C0.197492 140.505 0.0169279 137.825 0.0169279 134.704C0.0169279 131.651 0.197492 129.039 0.558621 126.868C0.931035 124.629 1.3768 123.51 1.89593 123.51Z" fill="black"/>
<path d="M16.1702 2H16.9712L16.9954 3.18908H16.958C16.9507 2.90512 16.9313 2.69609 16.8997 2.562C16.8689 2.42397 16.8172 2.35495 16.7446 2.35495H16.662V5.7802C16.662 6.11148 16.6694 6.32248 16.684 6.41319C16.6987 6.49996 16.8626 6.54925 16.911 6.56109V6.77405H16.3671V6.56109C16.4148 6.53742 16.4449 6.48418 16.4574 6.40136C16.4706 6.31459 16.4772 6.10951 16.4772 5.78612V2.35495H16.3935C16.3239 2.35495 16.2743 2.41805 16.245 2.54425C16.2156 2.66651 16.1955 2.88145 16.1845 3.18908H16.1471L16.1702 2ZM17.101 2L17.4014 5.38384L17.693 2H18V2.21888C17.9589 2.22283 17.9314 2.24452 17.9175 2.28396C17.9043 2.3234 17.8944 2.3865 17.8878 2.47326C17.8812 2.56003 17.8779 2.74145 17.8779 3.01752V5.78612C17.8779 6.12134 17.8848 6.33037 17.8988 6.41319C17.9127 6.49601 17.9464 6.54531 18 6.56109V6.77405H17.5621V6.56109C17.6053 6.55714 17.6343 6.53348 17.649 6.4901C17.6644 6.44671 17.6754 6.38361 17.682 6.30079C17.6893 6.21797 17.693 6.04838 17.693 5.79203V2.88145L17.3552 6.77405H17.32L16.9811 2.9347V5.78612C16.9811 6.0543 16.984 6.2298 16.9899 6.31262C16.9965 6.3915 17.0064 6.45263 17.0196 6.49601C17.0335 6.53939 17.0548 6.56109 17.0834 6.56109H17.123V6.77405H16.7863V6.56109C16.8274 6.56109 16.8549 6.54137 16.8688 6.50193C16.8835 6.46249 16.8941 6.40136 16.9007 6.31854C16.9073 6.23572 16.9106 6.05824 16.9106 5.78612V3.02935C16.9106 2.72962 16.9073 2.54031 16.9007 2.46143C16.8949 2.38256 16.8846 2.3234 16.8699 2.28396C16.8553 2.24058 16.8274 2.21888 16.7863 2.21888V2H17.101Z" fill="black" fill-opacity="0.2"/>
</svg>
