<svg width="6" height="11" viewBox="0 0 6 11" fill="none" xmlns="http://www.w3.org/2000/svg">
<path d="M0.163424 2.23438C0.464332 1.52083 0.843061 0.971354 1.29961 0.585938C1.76135 0.195312 2.33463 0 3.01946 0C3.86511 0 4.51362 0.276042 4.96498 0.828125C5.30739 1.23958 5.4786 1.67969 5.4786 2.14844C5.4786 2.91927 4.99611 3.71615 4.03113 4.53906C4.67964 4.79427 5.16991 5.15885 5.50195 5.63281C5.83398 6.10677 6 6.66406 6 7.30469C6 8.22135 5.70947 9.01562 5.1284 9.6875C4.37095 10.5625 3.27367 11 1.83658 11C1.12581 11 0.640726 10.9115 0.381323 10.7344C0.127108 10.5573 0 10.3672 0 10.1641C0 10.013 0.0596628 9.88021 0.178988 9.76562C0.303502 9.65104 0.451362 9.59375 0.622568 9.59375C0.75227 9.59375 0.884565 9.61458 1.01946 9.65625C1.10765 9.68229 1.30739 9.77865 1.61868 9.94531C1.92996 10.1068 2.14527 10.2031 2.26459 10.2344C2.45655 10.2917 2.66148 10.3203 2.87938 10.3203C3.40856 10.3203 3.8677 10.1146 4.25681 9.70312C4.6511 9.29167 4.84825 8.80469 4.84825 8.24219C4.84825 7.83073 4.75746 7.42969 4.57588 7.03906C4.44099 6.7474 4.29313 6.52604 4.1323 6.375C3.90921 6.16667 3.60311 5.97917 3.21401 5.8125C2.8249 5.64062 2.42802 5.55469 2.02335 5.55469H1.77432V5.32031C2.18418 5.26823 2.59403 5.11979 3.00389 4.875C3.41894 4.63021 3.71984 4.33594 3.90661 3.99219C4.09339 3.64844 4.18677 3.27083 4.18677 2.85938C4.18677 2.32292 4.01816 1.89062 3.68093 1.5625C3.3489 1.22917 2.93385 1.0625 2.4358 1.0625C1.63165 1.0625 0.959792 1.49479 0.420233 2.35938L0.163424 2.23438Z" fill="black"/>
</svg>
