<svg width="2" height="8" viewBox="0 0 2 8" fill="none" xmlns="http://www.w3.org/2000/svg">
<path d="M0.882812 0C1.1224 0 1.32552 0.0859375 1.49219 0.257812C1.66406 0.424479 1.75 0.627604 1.75 0.867188C1.75 1.10677 1.66406 1.3125 1.49219 1.48438C1.32552 1.65104 1.1224 1.73438 0.882812 1.73438C0.643229 1.73438 0.4375 1.65104 0.265625 1.48438C0.0989583 1.3125 0.015625 1.10677 0.015625 0.867188C0.015625 0.627604 0.0989583 0.424479 0.265625 0.257812C0.4375 0.0859375 0.643229 0 0.882812 0ZM0.867188 5.85156C1.11198 5.85156 1.31771 5.9375 1.48438 6.10938C1.65625 6.28125 1.74219 6.48698 1.74219 6.72656C1.74219 6.96615 1.65625 7.17188 1.48438 7.34375C1.3125 7.51042 1.10677 7.59375 0.867188 7.59375C0.627604 7.59375 0.421875 7.51042 0.25 7.34375C0.0833333 7.17188 0 6.96615 0 6.72656C0 6.48698 0.0833333 6.28125 0.25 6.10938C0.421875 5.9375 0.627604 5.85156 0.867188 5.85156Z" fill="black"/>
</svg>
